<svg xmlns="http://www.w3.org/2000/svg" viewBox="0 0 411 235" width="657.6" role="img">
<path d="M70.25 198L70.25 9" class="net" fill="none" stroke-width="1.05"/>
<path d="M70.25 198L70.25 201.75" class="net" fill="none" stroke-width="1.05"/>
<path d="M152.75 198L152.75 201.75" class="net" fill="none" stroke-width="1.05"/>
<path d="M235.25 198L235.25 201.75" class="net" fill="none" stroke-width="1.05"/>
<path d="M317.75 198L317.75 201.75" class="net" fill="none" stroke-width="1.05"/>
<path d="M400.25 198L400.25 201.75" class="net" fill="none" stroke-width="1.05"/>
<path d="M66.5 198L70.25 198" class="net" fill="none" stroke-width="1.05"/>
<path d="M66.5 177.6L70.25 177.6" class="net" fill="none" stroke-width="1.05"/>
<path d="M66.5 157.12L70.25 157.12" class="net" fill="none" stroke-width="1.05"/>
<path d="M66.5 136.73L70.25 136.73" class="net" fill="none" stroke-width="1.05"/>
<path d="M66.5 116.25L70.25 116.25" class="net" fill="none" stroke-width="1.05"/>
<path d="M66.5 95.85L70.25 95.85" class="net" fill="none" stroke-width="1.05"/>
<path d="M66.5 75.38L70.25 75.38" class="net" fill="none" stroke-width="1.05"/>
<path d="M66.5 54.98L70.25 54.98" class="net" fill="none" stroke-width="1.05"/>
<path d="M66.5 34.57L70.25 34.57" class="net" fill="none" stroke-width="1.05"/>
<path d="M66.5 14.1L70.25 14.1" class="net" fill="none" stroke-width="1.05"/>
<path d="M141.2 138.75L279.8 52.95" class="net" fill="none" stroke-width="1.2"/>
<path d="M147.5 136.73C147.5 137.12 147.42 137.51 147.27 137.87C147.12 138.24 146.9 138.57 146.62 138.85C146.34 139.13 146.02 139.34 145.65 139.5C145.28 139.65 144.9 139.72 144.5 139.73C144.1 139.72 143.72 139.65 143.35 139.5C142.98 139.34 142.66 139.13 142.38 138.85C142.1 138.57 141.88 138.24 141.73 137.87C141.58 137.51 141.5 137.12 141.5 136.73C141.5 136.33 141.58 135.94 141.73 135.58C141.88 135.21 142.1 134.88 142.38 134.6C142.66 134.32 142.98 134.11 143.35 133.95C143.72 133.8 144.1 133.73 144.5 133.73C144.9 133.73 145.28 133.8 145.65 133.95C146.02 134.11 146.34 134.32 146.62 134.6C146.9 134.88 147.12 135.21 147.27 135.58C147.42 135.94 147.5 136.33 147.5 136.73" class="to-dam"/>
<path d="M180.5 116.25C180.5 116.65 180.42 117.03 180.27 117.4C180.12 117.77 179.9 118.09 179.62 118.37C179.34 118.65 179.02 118.87 178.65 119.02C178.28 119.17 177.9 119.25 177.5 119.25C177.1 119.25 176.72 119.17 176.35 119.02C175.98 118.87 175.66 118.65 175.38 118.37C175.1 118.09 174.88 117.77 174.73 117.4C174.58 117.03 174.5 116.65 174.5 116.25C174.5 115.85 174.58 115.47 174.73 115.1C174.88 114.73 175.1 114.41 175.38 114.13C175.66 113.85 175.98 113.63 176.35 113.48C176.72 113.33 177.1 113.25 177.5 113.25C177.9 113.25 178.28 113.33 178.65 113.48C179.02 113.63 179.34 113.85 179.62 114.13C179.9 114.41 180.12 114.73 180.27 115.1C180.42 115.47 180.5 115.85 180.5 116.25" class="to-dam"/>
<path d="M213.5 95.85C213.5 96.25 213.42 96.63 213.27 97C213.12 97.37 212.9 97.69 212.62 97.97C212.34 98.25 212.02 98.47 211.65 98.62C211.28 98.77 210.9 98.85 210.5 98.85C210.1 98.85 209.72 98.77 209.35 98.62C208.98 98.47 208.66 98.25 208.38 97.97C208.1 97.69 207.88 97.37 207.73 97C207.58 96.63 207.5 96.25 207.5 95.85C207.5 95.45 207.58 95.07 207.73 94.7C207.88 94.33 208.1 94.01 208.38 93.73C208.66 93.45 208.98 93.23 209.35 93.08C209.72 92.93 210.1 92.85 210.5 92.85C210.9 92.85 211.28 92.93 211.65 93.08C212.02 93.23 212.34 93.45 212.62 93.73C212.9 94.01 213.12 94.33 213.27 94.7C213.42 95.07 213.5 95.45 213.5 95.85" class="to-dam"/>
<path d="M246.5 75.38C246.5 75.77 246.42 76.16 246.27 76.52C246.12 76.89 245.9 77.21 245.62 77.5C245.34 77.78 245.02 77.99 244.65 78.15C244.28 78.3 243.9 78.37 243.5 78.38C243.1 78.37 242.72 78.3 242.35 78.15C241.98 77.99 241.66 77.78 241.38 77.5C241.1 77.21 240.88 76.89 240.73 76.52C240.58 76.16 240.5 75.77 240.5 75.38C240.5 74.98 240.58 74.59 240.73 74.23C240.88 73.86 241.1 73.53 241.38 73.25C241.66 72.97 241.98 72.76 242.35 72.6C242.72 72.45 243.1 72.38 243.5 72.38C243.9 72.38 244.28 72.45 244.65 72.6C245.02 72.76 245.34 72.97 245.62 73.25C245.9 73.53 246.12 73.86 246.27 74.23C246.42 74.59 246.5 74.98 246.5 75.38" class="to-dam"/>
<path d="M279.5 54.98C279.5 55.37 279.42 55.76 279.27 56.12C279.12 56.49 278.9 56.82 278.62 57.1C278.34 57.38 278.02 57.59 277.65 57.75C277.28 57.9 276.9 57.98 276.5 57.98C276.1 57.98 275.72 57.9 275.35 57.75C274.98 57.59 274.66 57.38 274.38 57.1C274.1 56.82 273.88 56.49 273.73 56.12C273.58 55.76 273.5 55.37 273.5 54.98C273.5 54.58 273.58 54.19 273.73 53.83C273.88 53.46 274.1 53.13 274.38 52.85C274.66 52.57 274.98 52.36 275.35 52.2C275.72 52.05 276.1 51.98 276.5 51.98C276.9 51.98 277.28 52.05 277.65 52.2C278.02 52.36 278.34 52.57 278.62 52.85C278.9 53.13 279.12 53.46 279.27 53.83C279.42 54.19 279.5 54.58 279.5 54.98" class="to-dam"/>
<path d="M165.95 138.75L304.55 52.95" class="net" fill="none" stroke-width="1.2"/>
<path d="M172.25 136.73C172.25 137.12 172.17 137.51 172.02 137.87C171.87 138.24 171.65 138.57 171.37 138.85C171.09 139.13 170.77 139.34 170.4 139.5C170.03 139.65 169.65 139.72 169.25 139.73C168.85 139.72 168.47 139.65 168.1 139.5C167.73 139.34 167.41 139.13 167.13 138.85C166.85 138.57 166.63 138.24 166.48 137.87C166.33 137.51 166.25 137.12 166.25 136.73C166.25 136.33 166.33 135.94 166.48 135.58C166.63 135.21 166.85 134.88 167.13 134.6C167.41 134.32 167.73 134.11 168.1 133.95C168.47 133.8 168.85 133.73 169.25 133.73C169.65 133.73 170.03 133.8 170.4 133.95C170.77 134.11 171.09 134.32 171.37 134.6C171.65 134.88 171.87 135.21 172.02 135.58C172.17 135.94 172.25 136.33 172.25 136.73" class="to-dam"/>
<path d="M205.25 116.25C205.25 116.65 205.17 117.03 205.02 117.4C204.87 117.77 204.65 118.09 204.37 118.37C204.09 118.65 203.77 118.87 203.4 119.02C203.03 119.17 202.65 119.25 202.25 119.25C201.85 119.25 201.47 119.17 201.1 119.02C200.73 118.87 200.41 118.65 200.13 118.37C199.85 118.09 199.63 117.77 199.48 117.4C199.33 117.03 199.25 116.65 199.25 116.25C199.25 115.85 199.33 115.47 199.48 115.1C199.63 114.73 199.85 114.41 200.13 114.13C200.41 113.85 200.73 113.63 201.1 113.48C201.47 113.33 201.85 113.25 202.25 113.25C202.65 113.25 203.03 113.33 203.4 113.48C203.77 113.63 204.09 113.85 204.37 114.13C204.65 114.41 204.87 114.73 205.02 115.1C205.17 115.47 205.25 115.85 205.25 116.25" class="to-dam"/>
<path d="M238.25 95.85C238.25 96.25 238.17 96.63 238.02 97C237.87 97.37 237.65 97.69 237.37 97.97C237.09 98.25 236.77 98.47 236.4 98.62C236.03 98.77 235.65 98.85 235.25 98.85C234.85 98.85 234.47 98.77 234.1 98.62C233.73 98.47 233.41 98.25 233.13 97.97C232.85 97.69 232.63 97.37 232.48 97C232.33 96.63 232.25 96.25 232.25 95.85C232.25 95.45 232.33 95.07 232.48 94.7C232.63 94.33 232.85 94.01 233.13 93.73C233.41 93.45 233.73 93.23 234.1 93.08C234.47 92.93 234.85 92.85 235.25 92.85C235.65 92.85 236.03 92.93 236.4 93.08C236.77 93.23 237.09 93.45 237.37 93.73C237.65 94.01 237.87 94.33 238.02 94.7C238.17 95.07 238.25 95.45 238.25 95.85" class="to-dam"/>
<path d="M271.25 75.38C271.25 75.77 271.17 76.16 271.02 76.52C270.87 76.89 270.65 77.21 270.37 77.5C270.09 77.78 269.77 77.99 269.4 78.15C269.03 78.3 268.65 78.37 268.25 78.38C267.85 78.37 267.47 78.3 267.1 78.15C266.73 77.99 266.41 77.78 266.13 77.5C265.85 77.21 265.63 76.89 265.48 76.52C265.33 76.16 265.25 75.77 265.25 75.38C265.25 74.98 265.33 74.59 265.48 74.23C265.63 73.86 265.85 73.53 266.13 73.25C266.41 72.97 266.73 72.76 267.1 72.6C267.47 72.45 267.85 72.38 268.25 72.38C268.65 72.38 269.03 72.45 269.4 72.6C269.77 72.76 270.09 72.97 270.37 73.25C270.65 73.53 270.87 73.86 271.02 74.23C271.17 74.59 271.25 74.98 271.25 75.38" class="to-dam"/>
<path d="M304.25 54.98C304.25 55.37 304.17 55.76 304.02 56.12C303.87 56.49 303.65 56.82 303.37 57.1C303.09 57.38 302.77 57.59 302.4 57.75C302.03 57.9 301.65 57.98 301.25 57.98C300.85 57.98 300.47 57.9 300.1 57.75C299.73 57.59 299.41 57.38 299.13 57.1C298.85 56.82 298.63 56.49 298.48 56.12C298.33 55.76 298.25 55.37 298.25 54.98C298.25 54.58 298.33 54.19 298.48 53.83C298.63 53.46 298.85 53.13 299.13 52.85C299.41 52.57 299.73 52.36 300.1 52.2C300.47 52.05 300.85 51.98 301.25 51.98C301.65 51.98 302.03 52.05 302.4 52.2C302.77 52.36 303.09 52.57 303.37 52.85C303.65 53.13 303.87 53.46 304.02 53.83C304.17 54.19 304.25 54.58 304.25 54.98" class="to-dam"/>
<path d="M195.65 138.75L334.25 52.95" class="net" fill="none" stroke-width="1.2"/>
<path d="M201.95 136.73C201.95 137.12 201.87 137.51 201.72 137.87C201.57 138.24 201.35 138.57 201.07 138.85C200.79 139.13 200.47 139.34 200.1 139.5C199.73 139.65 199.35 139.72 198.95 139.73C198.55 139.72 198.17 139.65 197.8 139.5C197.43 139.34 197.11 139.13 196.83 138.85C196.55 138.57 196.33 138.24 196.18 137.87C196.03 137.51 195.95 137.12 195.95 136.73C195.95 136.33 196.03 135.94 196.18 135.58C196.33 135.21 196.55 134.88 196.83 134.6C197.11 134.32 197.43 134.11 197.8 133.95C198.17 133.8 198.55 133.73 198.95 133.73C199.35 133.73 199.73 133.8 200.1 133.95C200.47 134.11 200.79 134.32 201.07 134.6C201.35 134.88 201.57 135.21 201.72 135.58C201.87 135.94 201.95 136.33 201.95 136.73" class="to-dam"/>
<path d="M234.95 116.25C234.95 116.65 234.87 117.03 234.72 117.4C234.57 117.77 234.35 118.09 234.07 118.37C233.79 118.65 233.47 118.87 233.1 119.02C232.73 119.17 232.35 119.25 231.95 119.25C231.55 119.25 231.17 119.17 230.8 119.02C230.43 118.87 230.11 118.65 229.83 118.37C229.55 118.09 229.33 117.77 229.18 117.4C229.03 117.03 228.95 116.65 228.95 116.25C228.95 115.85 229.03 115.47 229.18 115.1C229.33 114.73 229.55 114.41 229.83 114.13C230.11 113.85 230.43 113.63 230.8 113.48C231.17 113.33 231.55 113.25 231.95 113.25C232.35 113.25 232.73 113.33 233.1 113.48C233.47 113.63 233.79 113.85 234.07 114.13C234.35 114.41 234.57 114.73 234.72 115.1C234.87 115.47 234.95 115.85 234.95 116.25" class="to-dam"/>
<path d="M267.95 95.85C267.95 96.25 267.87 96.63 267.72 97C267.57 97.37 267.35 97.69 267.07 97.97C266.79 98.25 266.47 98.47 266.1 98.62C265.73 98.77 265.35 98.85 264.95 98.85C264.55 98.85 264.17 98.77 263.8 98.62C263.43 98.47 263.11 98.25 262.83 97.97C262.55 97.69 262.33 97.37 262.18 97C262.03 96.63 261.95 96.25 261.95 95.85C261.95 95.45 262.03 95.07 262.18 94.7C262.33 94.33 262.55 94.01 262.83 93.73C263.11 93.45 263.43 93.23 263.8 93.08C264.17 92.93 264.55 92.85 264.95 92.85C265.35 92.85 265.73 92.93 266.1 93.08C266.47 93.23 266.79 93.45 267.07 93.73C267.35 94.01 267.57 94.33 267.72 94.7C267.87 95.07 267.95 95.45 267.95 95.85" class="to-dam"/>
<path d="M300.95 75.38C300.95 75.77 300.87 76.16 300.72 76.52C300.57 76.89 300.35 77.21 300.07 77.5C299.79 77.78 299.47 77.99 299.1 78.15C298.73 78.3 298.35 78.37 297.95 78.38C297.55 78.37 297.17 78.3 296.8 78.15C296.43 77.99 296.11 77.78 295.83 77.5C295.55 77.21 295.33 76.89 295.18 76.52C295.03 76.16 294.95 75.77 294.95 75.38C294.95 74.98 295.03 74.59 295.18 74.23C295.33 73.86 295.55 73.53 295.83 73.25C296.11 72.97 296.43 72.76 296.8 72.6C297.17 72.45 297.55 72.38 297.95 72.38C298.35 72.38 298.73 72.45 299.1 72.6C299.47 72.76 299.79 72.97 300.07 73.25C300.35 73.53 300.57 73.86 300.72 74.23C300.87 74.59 300.95 74.98 300.95 75.38" class="to-dam"/>
<path d="M333.95 54.98C333.95 55.37 333.87 55.76 333.72 56.12C333.57 56.49 333.35 56.82 333.07 57.1C332.79 57.38 332.47 57.59 332.1 57.75C331.73 57.9 331.35 57.98 330.95 57.98C330.55 57.98 330.17 57.9 329.8 57.75C329.43 57.59 329.11 57.38 328.83 57.1C328.55 56.82 328.33 56.49 328.18 56.12C328.03 55.76 327.95 55.37 327.95 54.98C327.95 54.58 328.03 54.19 328.18 53.83C328.33 53.46 328.55 53.13 328.83 52.85C329.11 52.57 329.43 52.36 329.8 52.2C330.17 52.05 330.55 51.98 330.95 51.98C331.35 51.98 331.73 52.05 332.1 52.2C332.47 52.36 332.79 52.57 333.07 52.85C333.35 53.13 333.57 53.46 333.72 53.83C333.87 54.19 333.95 54.58 333.95 54.98" class="to-dam"/>
<path d="M214.25 95.85C214.25 96.35 214.15 96.83 213.96 97.29C213.77 97.74 213.5 98.15 213.15 98.5C212.8 98.85 212.39 99.12 211.94 99.31C211.48 99.5 211 99.6 210.5 99.6C210 99.6 209.52 99.5 209.06 99.31C208.61 99.12 208.2 98.85 207.85 98.5C207.5 98.15 207.23 97.74 207.04 97.29C206.85 96.83 206.75 96.35 206.75 95.85C206.75 95.35 206.85 94.87 207.04 94.41C207.23 93.96 207.5 93.55 207.85 93.2C208.2 92.85 208.61 92.58 209.06 92.39C209.52 92.2 210 92.1 210.5 92.1C211 92.1 211.48 92.2 211.94 92.39C212.39 92.58 212.8 92.85 213.15 93.2C213.5 93.55 213.77 93.96 213.96 94.41C214.15 94.87 214.25 95.35 214.25 95.85" class="to-nhan"/>
<path d="M210.09 198L210.09 195L210.91 195L210.91 198M210.09 192L210.09 189L210.91 189L210.91 192M210.09 186L210.09 183L210.91 183L210.91 186M210.09 180L210.09 177L210.91 177L210.91 180M210.09 174L210.09 171L210.91 171L210.91 174M210.09 168L210.09 165L210.91 165L210.91 168M210.09 162L210.09 159L210.91 159L210.91 162M210.09 156L210.09 153L210.91 153L210.91 156M210.09 150L210.09 147L210.91 147L210.91 150M210.09 144L210.09 141L210.91 141L210.91 144M210.09 138L210.09 135L210.91 135L210.91 138M210.09 132L210.09 129L210.91 129L210.91 132M210.09 126L210.09 123L210.91 123L210.91 126M210.09 120L210.09 117L210.91 117L210.91 120M210.09 114L210.09 111L210.91 111L210.91 114M210.09 108L210.09 105L210.91 105L210.91 108M210.09 102L210.09 99L210.91 99L210.91 102M210.09 96L210.09 95.85L210.91 95.85L210.91 96" class="to-nhan"/>
<path d="M239 95.85C239 96.35 238.9 96.83 238.71 97.29C238.52 97.74 238.25 98.15 237.9 98.5C237.55 98.85 237.14 99.12 236.69 99.31C236.23 99.5 235.75 99.6 235.25 99.6C234.75 99.6 234.27 99.5 233.81 99.31C233.36 99.12 232.95 98.85 232.6 98.5C232.25 98.15 231.98 97.74 231.79 97.29C231.6 96.83 231.5 96.35 231.5 95.85C231.5 95.35 231.6 94.87 231.79 94.41C231.98 93.96 232.25 93.55 232.6 93.2C232.95 92.85 233.36 92.58 233.81 92.39C234.27 92.2 234.75 92.1 235.25 92.1C235.75 92.1 236.23 92.2 236.69 92.39C237.14 92.58 237.55 92.85 237.9 93.2C238.25 93.55 238.52 93.96 238.71 94.41C238.9 94.87 239 95.35 239 95.85" class="to-nhan"/>
<path d="M234.84 198L234.84 195L235.66 195L235.66 198M234.84 192L234.84 189L235.66 189L235.66 192M234.84 186L234.84 183L235.66 183L235.66 186M234.84 180L234.84 177L235.66 177L235.66 180M234.84 174L234.84 171L235.66 171L235.66 174M234.84 168L234.84 165L235.66 165L235.66 168M234.84 162L234.84 159L235.66 159L235.66 162M234.84 156L234.84 153L235.66 153L235.66 156M234.84 150L234.84 147L235.66 147L235.66 150M234.84 144L234.84 141L235.66 141L235.66 144M234.84 138L234.84 135L235.66 135L235.66 138M234.84 132L234.84 129L235.66 129L235.66 132M234.84 126L234.84 123L235.66 123L235.66 126M234.84 120L234.84 117L235.66 117L235.66 120M234.84 114L234.84 111L235.66 111L235.66 114M234.84 108L234.84 105L235.66 105L235.66 108M234.84 102L234.84 99L235.66 99L235.66 102M234.84 96L234.84 95.85L235.66 95.85L235.66 96" class="to-nhan"/>
<path d="M268.7 95.85C268.7 96.35 268.6 96.83 268.41 97.29C268.22 97.74 267.95 98.15 267.6 98.5C267.25 98.85 266.84 99.12 266.39 99.31C265.93 99.5 265.45 99.6 264.95 99.6C264.45 99.6 263.97 99.5 263.51 99.31C263.06 99.12 262.65 98.85 262.3 98.5C261.95 98.15 261.68 97.74 261.49 97.29C261.3 96.83 261.2 96.35 261.2 95.85C261.2 95.35 261.3 94.87 261.49 94.41C261.68 93.96 261.95 93.55 262.3 93.2C262.65 92.85 263.06 92.58 263.51 92.39C263.97 92.2 264.45 92.1 264.95 92.1C265.45 92.1 265.93 92.2 266.39 92.39C266.84 92.58 267.25 92.85 267.6 93.2C267.95 93.55 268.22 93.96 268.41 94.41C268.6 94.87 268.7 95.35 268.7 95.85" class="to-nhan"/>
<path d="M264.54 198L264.54 195L265.36 195L265.36 198M264.54 192L264.54 189L265.36 189L265.36 192M264.54 186L264.54 183L265.36 183L265.36 186M264.54 180L264.54 177L265.36 177L265.36 180M264.54 174L264.54 171L265.36 171L265.36 174M264.54 168L264.54 165L265.36 165L265.36 168M264.54 162L264.54 159L265.36 159L265.36 162M264.54 156L264.54 153L265.36 153L265.36 156M264.54 150L264.54 147L265.36 147L265.36 150M264.54 144L264.54 141L265.36 141L265.36 144M264.54 138L264.54 135L265.36 135L265.36 138M264.54 132L264.54 129L265.36 129L265.36 132M264.54 126L264.54 123L265.36 123L265.36 126M264.54 120L264.54 117L265.36 117L265.36 120M264.54 114L264.54 111L265.36 111L265.36 114M264.54 108L264.54 105L265.36 105L265.36 108M264.54 102L264.54 99L265.36 99L265.36 102M264.54 96L264.54 95.85L265.36 95.85L265.36 96" class="to-nhan"/>
<path d="M70.25 95.44L73.25 95.44L73.25 96.26L70.25 96.26M76.25 95.44L79.25 95.44L79.25 96.26L76.25 96.26M82.25 95.44L85.25 95.44L85.25 96.26L82.25 96.26M88.25 95.44L91.25 95.44L91.25 96.26L88.25 96.26M94.25 95.44L97.25 95.44L97.25 96.26L94.25 96.26M100.25 95.44L103.25 95.44L103.25 96.26L100.25 96.26M106.25 95.44L109.25 95.44L109.25 96.26L106.25 96.26M112.25 95.44L115.25 95.44L115.25 96.26L112.25 96.26M118.25 95.44L121.25 95.44L121.25 96.26L118.25 96.26M124.25 95.44L127.25 95.44L127.25 96.26L124.25 96.26M130.25 95.44L133.25 95.44L133.25 96.26L130.25 96.26M136.25 95.44L139.25 95.44L139.25 96.26L136.25 96.26M142.25 95.44L145.25 95.44L145.25 96.26L142.25 96.26M148.25 95.44L151.25 95.44L151.25 96.26L148.25 96.26M154.25 95.44L157.25 95.44L157.25 96.26L154.25 96.26M160.25 95.44L163.25 95.44L163.25 96.26L160.25 96.26M166.25 95.44L169.25 95.44L169.25 96.26L166.25 96.26M172.25 95.44L175.25 95.44L175.25 96.26L172.25 96.26M178.25 95.44L181.25 95.44L181.25 96.26L178.25 96.26M184.25 95.44L187.25 95.44L187.25 96.26L184.25 96.26M190.25 95.44L193.25 95.44L193.25 96.26L190.25 96.26M196.25 95.44L199.25 95.44L199.25 96.26L196.25 96.26M202.25 95.44L205.25 95.44L205.25 96.26L202.25 96.26M208.25 95.44L211.25 95.44L211.25 96.26L208.25 96.26M214.25 95.44L217.25 95.44L217.25 96.26L214.25 96.26M220.25 95.44L223.25 95.44L223.25 96.26L220.25 96.26M226.25 95.44L229.25 95.44L229.25 96.26L226.25 96.26M232.25 95.44L235.25 95.44L235.25 96.26L232.25 96.26M238.25 95.44L241.25 95.44L241.25 96.26L238.25 96.26M244.25 95.44L247.25 95.44L247.25 96.26L244.25 96.26M250.25 95.44L253.25 95.44L253.25 96.26L250.25 96.26M256.25 95.44L259.25 95.44L259.25 96.26L256.25 96.26M262.25 95.44L264.95 95.44L264.95 96.26L262.25 96.26" class="to-nhan"/>
<path d="M228.65 121.35L195.65 121.35" class="net" fill="none" stroke-width="0.97"/>
<path d="M201.79 124.08L194.97 121.35L201.79 118.62L201.79 124.08" class="to-dam"/>
<path d="M241.85 134.62L278.15 134.62" class="net" fill="none" stroke-width="0.97"/>
<path d="M272.01 131.89L278.83 134.62L272.01 137.35L272.01 131.89" class="to-dam"/>
<text x="67.74" y="212.25" font-size="9" class="chu-slide">8</text>
<text x="147.73" y="212.25" font-size="9" class="chu-slide">13</text>
<text x="230.23" y="212.25" font-size="9" class="chu-slide">18</text>
<text x="312.73" y="212.25" font-size="9" class="chu-slide">23</text>
<text x="395.23" y="212.25" font-size="9" class="chu-slide">28</text>
<text x="28.46" y="201" font-size="9" class="chu-slide">10.000 $</text>
<text x="28.46" y="180.6" font-size="9" class="chu-slide">12.000 $</text>
<text x="28.46" y="160.12" font-size="9" class="chu-slide">14.000 $</text>
<text x="28.46" y="139.72" font-size="9" class="chu-slide">16.000 $</text>
<text x="28.46" y="119.25" font-size="9" class="chu-slide">18.000 $</text>
<text x="28.46" y="98.85" font-size="9" class="chu-slide">20.000 $</text>
<text x="28.46" y="78.38" font-size="9" class="chu-slide">22.000 $</text>
<text x="28.46" y="57.97" font-size="9" class="chu-slide">24.000 $</text>
<text x="28.46" y="37.57" font-size="9" class="chu-slide">26.000 $</text>
<text x="28.46" y="17.1" font-size="9" class="chu-slide">28.000 $</text>
<text x="190.33" y="226.5" font-size="9.75" font-weight="bold" class="chu-slide">Lượng (triệu chiếc)</text>
<text x="14.75" y="111.36" font-size="9.75" font-weight="bold" transform="rotate(-90 14.75 111.36)" class="chu-slide">Giá</text>
<text x="274.52" y="45.45" font-size="9.75" font-weight="bold" class="chu-slide">S₁</text>
<text x="299.09" y="45.45" font-size="9.75" font-weight="bold" class="chu-slide">S₀</text>
<text x="328.82" y="45.45" font-size="9.75" font-weight="bold" class="chu-slide">S₂</text>
<text x="207.78" y="89.1" font-size="9.75" class="chu-slide-nhan">L</text>
<text x="232.81" y="89.1" font-size="9.75" class="chu-slide-nhan">J</text>
<text x="260.88" y="89.1" font-size="9.75" class="chu-slide-nhan">M</text>
<text x="76.85" y="14.1" font-size="9" class="chu-slide">P = 20.000 · Q = 16,5 triệu (S₁)</text>
<text x="76.85" y="25.35" font-size="9" class="chu-slide">P = 20.000 · Q = 18 triệu (S₀)</text>
<text x="76.85" y="36.6" font-size="9" class="chu-slide">P = 20.000 · Q = 19,8 triệu (S₂)</text>
</svg>
